HIERARCHY
ROOT Hips
{
	OFFSET 0.00000 0.00000 0.00000
	CHANNELS 6 Xposition Yposition Zposition Yrotation Zrotation Xrotation 
	JOINT Lumbar
	{
		OFFSET 0 0 0
		CHANNELS 3 Zrotation Xrotation Yrotation
		JOINT Neck
		{
			OFFSET 0.00 0.2701 0.00
			CHANNELS 3 Zrotation Xrotation Yrotation
			End Site
			{
				OFFSET 0.00 0.1379 0.00
			}
		}
		JOINT RightShoulder
		{
			OFFSET 0.0119 0.2289 0.1181
			CHANNELS 3 Zrotation Xrotation Yrotation
			JOINT RightElbow
			{
				OFFSET 0.00 -0.1475 0.00
				CHANNELS 2 Zrotation Yrotation
				JOINT RightWrist
				{
					OFFSET 0.00 -0.1605 0.00
					CHANNELS 2 Zrotation Xrotation
					End Site
					{
						OFFSET 0.0040 -0.1068 0.0006
					}
				}
			}
		}
		JOINT LeftShoulder
		{
			OFFSET 0.0119 0.2289 -0.1181
			CHANNELS 3 Zrotation Xrotation Yrotation
			JOINT LeftElbow
			{
				OFFSET 0.00 -0.1475 0.00
				CHANNELS 2 Zrotation Yrotation
				JOINT LeftWrist
				{
					OFFSET 0.00 -0.1605 0.00
					CHANNELS 2 Zrotation Xrotation
					End Site
					{
						OFFSET 0.0040 -0.1068 -0.0006
					}
				}
			}
		}
	}
	JOINT RightHip
	{
		OFFSET 0.0316 -0.0424 0.0458
		CHANNELS 3 Zrotation Xrotation Yrotation
		JOINT RightKnee
		{
			OFFSET 0.00 -0.2438 0.00
			CHANNELS 1 Zrotation
			JOINT RightAnkle
			{
				OFFSET 0.00 -0.2449 0.00
				CHANNELS 3 Zrotation Xrotation Yrotation
				End Site
				{
					OFFSET 0.1237 -0.0542 0.0051
				}
			}
		}
	}
	JOINT LeftHip
	{
		OFFSET 0.0316 -0.0424 -0.0458
		CHANNELS 3 Zrotation Xrotation Yrotation
		JOINT LeftKnee
		{
			OFFSET 0.00 -0.2438 0.00
			CHANNELS 1 Zrotation
			JOINT LeftAnkle
			{
				OFFSET 0.00 -0.2449 0.00
				CHANNELS 3 Zrotation Xrotation Yrotation
				End Site
				{
					OFFSET 0.1237 -0.0542 -0.0051
				}
			}
		}
	}
}
MOTION
Frames: 14
Frame Time: 0.02
0.00091 -0.00191 0.00031 -174.81181 -29.09371 1.76496 41.13621 -0.12038 -9.3861 -11.72629 3.05873 -1.06954 -18.78746 -6.0347 -8.29983 23.5987 93.40191 6.71165 1.36204 -23.96369 9.43282 -5.7813 31.83413 -140.43604 26.42709 -8.45066 31.42733 -4.59565 -14.31857 -20.56978 -6.09496 -2.80494 -3.57962 36.22284 3.0524 3.12355 -24.3404 -6.83364 2.00998 3.22781
0.00015 -0.0018 0.00043 -174.84977 -29.0162 1.76122 41.2738 -0.14456 -9.20505 -11.73193 3.04882 -1.07108 -18.89219 -5.97154 -8.21334 23.76078 93.45991 6.77752 1.39865 -23.88842 9.23094 -5.47139 31.7392 -139.17589 26.16389 -8.15405 31.28411 -4.53673 -14.07119 -20.5308 -6.11266 -2.82604 -3.5899 36.06332 3.10842 3.32405 -24.32233 -6.83316 1.99476 3.21888
-0.00062 -0.00168 0.00056 -174.88769 -28.93889 1.75746 41.41106 -0.16866 -9.02449 -11.73748 3.03895 -1.07262 -18.99643 -5.90865 -8.12675 23.92237 93.51758 6.84307 1.43515 -23.81341 9.02991 -5.16312 31.64468 -137.9142 25.89957 -7.85753 31.14127 -4.4779 -13.82429 -20.49193 -6.13032 -2.8471 -3.60017 35.90419 3.16433 3.52412 -24.30433 -6.83266 1.97957 3.20996
-0.00139 -0.00156 0.00069 -174.92555 -28.8616 1.75373 41.54824 -0.19276 -8.84397 -11.74309 3.02908 -1.07416 -19.1008 -5.84569 -8.04046 24.08395 93.57536 6.90871 1.47164 -23.73837 8.8287 -4.8543 31.55005 -136.65667 25.63672 -7.56164 30.99848 -4.41915 -13.57762 -20.45308 -6.14796 -2.86814 -3.61043 35.74514 3.2202 3.72404 -24.28632 -6.83218 1.9644 3.20105
-0.00215 -0.00144 0.00081 -174.96341 -28.78413 1.75001 41.68571 -0.21697 -8.66301 -11.74883 3.01916 -1.0757 -19.20575 -5.78243 -7.95441 24.24603 93.63356 6.97473 1.50826 -23.66307 8.62652 -4.54352 31.45499 -135.40378 25.37611 -7.26614 30.85535 -4.36032 -13.33057 -20.41411 -6.16564 -2.8892 -3.6207 35.58575 3.27617 3.92433 -24.26824 -6.8317 1.94919 3.19212
-0.00292 -0.00132 0.00094 -175.00146 -28.70716 1.74618 41.82252 -0.24082 -8.48332 -11.75396 3.00941 -1.07723 -19.30848 -5.72033 -7.86671 24.40657 93.69015 7.03929 1.54449 -23.5887 8.42792 -4.24049 31.3616 -134.12433 25.10423 -6.96759 30.7131 -4.30151 -13.084 -20.37547 -6.18324 -2.91026 -3.63097 35.42718 3.33193 4.12391 -24.25038 -6.83117 1.93404 3.18324
-0.00369 -0.0012 0.00107 -175.03911 -28.62926 1.74259 41.96051 -0.26535 -8.30122 -11.76029 2.99934 -1.07878 -19.41552 -5.65597 -7.7824 24.57 93.7498 7.10667 1.58146 -23.51251 8.22238 -3.92242 31.26493 -132.89687 24.8543 -6.67508 30.56924 -4.24273 -12.83674 -20.3362 -6.20099 -2.93131 -3.64122 35.26712 3.38805 4.32471 -24.23211 -6.83075 1.9188 3.17426
-0.00445 -0.00108 0.00119 -175.07709 -28.55222 1.73878 42.0974 -0.28927 -8.1214 -11.76555 2.98955 -1.08032 -19.51868 -5.59367 -7.69502 24.73084 93.80682 7.17155 1.61776 -23.43802 8.02315 -3.61779 31.17129 -131.62668 24.58601 -6.37778 30.42687 -4.18393 -12.59014 -20.29752 -6.2186 -2.95236 -3.65149 35.10844 3.44384 4.52437 -24.21421 -6.83023 1.90364 3.16538
-0.0052 -0.00097 0.00131 -175.11564 -28.47618 1.73466 42.23306 -0.31239 -7.94405 -11.76937 2.98014 -1.08184 -19.61672 -5.53395 -7.60355 24.88829 93.85988 7.23295 1.65322 -23.36552 7.83199 -3.33133 31.08135 -130.28206 24.28735 -6.07124 30.28625 -4.12504 -12.34408 -20.25954 -6.23605 -2.97343 -3.6618 34.95133 3.49926 4.72278 -24.19679 -6.82958 1.88859 3.15661
-0.00601 -0.00083 0.00145 -175.15141 -28.39426 1.73219 42.37616 -0.33993 -7.75157 -11.78107 2.96868 -1.08344 -19.74307 -5.4596 -7.53457 25.06456 93.93348 7.31312 1.69346 -23.2813 7.59548 -2.94556 30.97012 -129.29882 24.13953 -5.80766 30.13533 -4.06647 -12.09408 -20.21748 -6.25445 -2.99446 -3.67194 34.78485 3.55689 4.92882 -24.17669 -6.82963 1.87293 3.14718
-0.00671 -0.00074 0.00155 -175.19274 -28.32481 1.72633 42.50331 -0.35828 -7.5916 -11.77641 2.96143 -1.08487 -19.81047 -5.41599 -7.41887 25.20155 93.96517 7.35449 1.72362 -23.22199 7.45394 -2.76589 30.90381 -127.59656 23.68897 -5.46009 30.00629 -4.00737 -11.85298 -20.18406 -6.27083 -3.01552 -3.6824 34.63838 3.60983 5.11848 -24.16221 -6.82825 1.85856 3.13913
-0.00712 -0.00079 0.00156 -175.25211 -28.28939 1.71046 42.58836 -0.35006 -7.5167 -11.72411 2.96681 -1.08584 -19.70821 -5.45837 -7.16773 25.22631 93.86877 7.28175 1.72569 -23.23038 7.5817 -3.18679 30.96236 -123.52871 22.26628 -4.8227 29.93664 -3.94548 -11.63164 -20.17426 -6.28178 -3.03709 -3.69399 34.54542 3.65007 5.26519 -24.16354 -6.82266 1.84764 3.13491
-0.00741 -0.00089 0.00152 -175.31655 -28.26654 1.69131 42.65705 -0.33286 -7.47514 -11.65586 2.97621 -1.08664 -19.5484 -5.53127 -6.87113 25.21251 93.73245 7.17141 1.71771 -23.26404 7.80343 -3.80895 31.06607 -118.80181 20.5623 -4.11047 29.8891 -3.88331 -11.42024 -20.17317 -6.29067 -3.0586 -3.70584 34.47285 3.68556 5.39508 -24.17044 -6.8157 1.83802 3.13205
-0.00776 -0.00096 0.00151 -175.37687 -28.23806 1.67408 42.73216 -0.32067 -7.42114 -11.5967 2.98309 -1.0875 -19.41985 -5.58916 -6.59988 25.21915 93.62328 7.08333 1.71464 -23.2864 7.97622 -4.31513 31.14764 -114.64522 19.08377 -3.4731 29.83187 -3.82211 -11.20713 -20.16815 -6.30044 -3.07986 -3.71739 34.39181 3.72311 5.53141 -24.1745 -6.80958 1.82788 3.12853
